# xmcd
#
# Track frame offsets: 
#        150
#        27202
#        51050
#        75325
#        103961
#        127744
#        167357
#        197185
#        216063
#        252302
#        283176
#        314562
#
# Disc length: 4640 seconds
#
# Revision: 2
# Processed by: cddbd v1.5.2PL0 Copyright (c) Steve Scherf et al.
# Submitted via: ExactAudioCopyFreeDBPlugin 1.0
#
DISCID=a2121e0c
DTITLE=Gov't Mule - Revolution Come...Revolution Go
DYEAR=2017
DGENRE=Blues
TTITLE0=Stone Cold Rage
TTITLE1=Drawn That Way
TTITLE2=Pressure Under Fire
TTITLE3=The Man I Want To Be
TTITLE4=Traveling Tune
TTITLE5=Thorns Of Life
TTITLE6=Dreams and Songs
TTITLE7=Sarah, Surrender
TTITLE8=Revolution Come, Revolution Go
TTITLE9=Burning Point [ feat. Jimmie Vaughan]
TTITLE10=Easy Times
TTITLE11=Dark Was The Night, Cold Was The Ground
EXTD=Release-Date: 09.06.2017\n\nMARO\n
EXTT0=
EXTT1=
EXTT2=
EXTT3=
EXTT4=
EXTT5=
EXTT6=
EXTT7=
EXTT8=
EXTT9=
EXTT10=
EXTT11=
PLAYORDER=
